<?xml version="1.0" encoding="utf-8"?>
<!-- Generator: Adobe Illustrator 16.0.0, SVG Export Plug-In . SVG Version: 6.00 Build 0)  -->
<!DOCTYPE svg PUBLIC "-//W3C//DTD SVG 1.1//EN" "http://www.w3.org/Graphics/SVG/1.1/DTD/svg11.dtd">
<svg version="1.1" id="Layer_1" xmlns="http://www.w3.org/2000/svg" xmlns:xlink="http://www.w3.org/1999/xlink" x="0px" y="0px"
	 width="16px" height="16px" viewBox="2.005 5.358 16 16" enable-background="new 2.005 5.358 16 16" xml:space="preserve">
<g id="Layer_2">
</g>
<g id="Layer_1_1_">
	<g id="fotball">
		<g>
			<circle fill="#EC2327" cx="9.959" cy="13.374" r="7.805"/>
			<path fill="#231F20" d="M8.396,8.291c0,0,1.098-0.105,2.572,0.947l-0.602,2.451l-2.977,0.586l-1.07-2.195
				C6.319,10.08,8.17,8.23,8.396,8.291z"/>
			<path fill="#231F20" d="M6.545,15.314l1.834,2.09l-0.676,1.533l-2.391-0.813L4.59,15.72C4.59,15.72,4.801,15.645,6.545,15.314z"
				/>
			<polygon fill="#231F20" points="12.365,14.051 11.373,16.756 13.645,17.885 15.492,16.186 15.057,13.659 			"/>
			<path fill="#231F20" d="M14.186,7.403c0,0-0.496,1.279-0.422,1.458l1.91,2.256l1.264-0.045
				C16.938,11.072,15.839,8.486,14.186,7.403z"/>
			<path fill="#231F20" d="M3.749,9.78c0,0,0.286,0.346,0.255,0.587c-0.029,0.24-0.495,2.736-0.646,2.857
				c0,0-0.391,0.284-0.631,0.301C2.485,13.539,3.042,10.186,3.749,9.78z"/>
			<g>
				<path fill="#231F20" d="M10.004,21.357c-1.08,0-2.128-0.211-3.115-0.627c-0.953-0.403-1.808-0.98-2.542-1.715
					c-0.734-0.733-1.311-1.591-1.714-2.543c-0.417-0.986-0.628-2.035-0.628-3.113c0-1.08,0.212-2.129,0.628-3.114
					c0.404-0.953,0.98-1.807,1.715-2.542C5.082,6.967,5.937,6.391,6.89,5.987c0.986-0.417,2.034-0.629,3.115-0.629
					c1.079,0,2.127,0.212,3.114,0.629c0.951,0.404,1.808,0.98,2.543,1.714c0.734,0.734,1.313,1.59,1.714,2.543
					c0.418,0.986,0.629,2.033,0.629,3.113s-0.211,2.127-0.629,3.115c-0.401,0.951-0.979,1.808-1.714,2.543
					c-0.735,0.732-1.592,1.312-2.543,1.713C12.132,21.146,11.084,21.357,10.004,21.357z M10.004,6.26
					c-3.914,0-7.098,3.186-7.098,7.098c0,3.914,3.185,7.1,7.098,7.1s7.098-3.186,7.098-7.1C17.102,9.445,13.918,6.26,10.004,6.26z"
					/>
			</g>
		</g>
	</g>
</g>
</svg>
