<?xml version="1.0" encoding="utf-8"?>
<!-- Generator: Adobe Illustrator 16.0.0, SVG Export Plug-In . SVG Version: 6.00 Build 0)  -->
<!DOCTYPE svg PUBLIC "-//W3C//DTD SVG 1.1//EN" "http://www.w3.org/Graphics/SVG/1.1/DTD/svg11.dtd">
<svg version="1.1" id="Layer_1" xmlns="http://www.w3.org/2000/svg" xmlns:xlink="http://www.w3.org/1999/xlink" x="0px" y="0px"
	 width="11.873px" height="15.999px" viewBox="4.734 5.262 11.873 15.999" enable-background="new 4.734 5.262 11.873 15.999"
	 xml:space="preserve">
<g id="gult_kort">
	<path fill="#FFCE00" d="M16.516,20.093c0,0.646-0.522,1.168-1.168,1.168H5.902c-0.646,0-1.168-0.522-1.168-1.168V6.431
		c0-0.646,0.522-1.169,1.168-1.169h9.445c0.646,0,1.168,0.523,1.168,1.169L16.516,20.093L16.516,20.093z"/>
</g>
<g>
	<g>
		<defs>
			<polygon id="SVGID_1_" points="16.607,6.237 4.734,21.261 16.353,21.261 			"/>
		</defs>
		<clipPath id="SVGID_2_">
			<use xlink:href="#SVGID_1_"  overflow="visible"/>
		</clipPath>
		<g id="rødt_kort_1_" clip-path="url(#SVGID_2_)">
			<path fill="#EC2327" d="M16.516,20.093c0,0.646-0.522,1.168-1.168,1.168H5.902c-0.646,0-1.168-0.522-1.168-1.168V6.431
				c0-0.646,0.522-1.169,1.168-1.169h9.445c0.646,0,1.168,0.523,1.168,1.169L16.516,20.093L16.516,20.093z"/>
		</g>
	</g>
</g>
</svg>
