<?xml version="1.0" encoding="utf-8"?>
<!-- Generator: Adobe Illustrator 16.0.0, SVG Export Plug-In . SVG Version: 6.00 Build 0)  -->
<!DOCTYPE svg PUBLIC "-//W3C//DTD SVG 1.1//EN" "http://www.w3.org/Graphics/SVG/1.1/DTD/svg11.dtd">
<svg version="1.1" id="Layer_1" xmlns="http://www.w3.org/2000/svg" xmlns:xlink="http://www.w3.org/1999/xlink" x="0px" y="0px"
	 width="16px" height="16px" viewBox="2.004 5.359 16 16" enable-background="new 2.004 5.359 16 16" xml:space="preserve">
<g id="Layer_8">
	<g>
		<rect x="2.004" y="5.359" width="16" height="16"/>
		<g>
			<path fill="#FFFFFF" d="M6.083,14.293V12.63c0-2.455,1.997-3.628,4.008-3.628c1.95,0,3.836,1.046,3.836,3.105v0.35h-2.536V12.22
				c0-0.872-0.617-1.235-1.283-1.235c-0.729,0-1.346,0.396-1.346,1.348v2.061c0,0.854,0.538,1.348,1.377,1.348
				c0.666,0,1.252-0.365,1.252-1.237v-0.206h2.535v0.381c0,2.062-1.854,3.043-3.804,3.043C8.127,17.716,6.083,16.686,6.083,14.293z"
				/>
		</g>
	</g>
</g>
</svg>
