<?xml version="1.0" encoding="utf-8"?>
<!-- Generator: Adobe Illustrator 16.0.0, SVG Export Plug-In . SVG Version: 6.00 Build 0)  -->
<!DOCTYPE svg PUBLIC "-//W3C//DTD SVG 1.1//EN" "http://www.w3.org/Graphics/SVG/1.1/DTD/svg11.dtd">
<svg version="1.1" xmlns="http://www.w3.org/2000/svg" xmlns:xlink="http://www.w3.org/1999/xlink" x="0px" y="0px"
	 width="986.469px" height="630.666px" viewBox="0 0 986.469 630.666" enable-background="new 0 0 986.469 630.666"
	 xml:space="preserve">
<g id="Layer_4">
	<rect fill="#008A00" width="986.469" height="630.666"/>
</g>
<g id="Layer_5">
	<rect x="456.694" fill="#008000" width="36.536" height="630.666"/>
	<rect x="529.696" fill="#008000" width="36.536" height="630.666"/>
	<rect x="602.762" fill="#008000" width="36.536" height="630.666"/>
	<rect x="675.829" fill="#008000" width="36.536" height="630.666"/>
	<rect x="748.895" fill="#008000" width="36.536" height="630.666"/>
	<rect x="821.961" fill="#008000" width="36.536" height="630.666"/>
	<rect x="895.028" fill="#008000" width="36.536" height="630.666"/>
	<rect x="968.094" fill="#008000" width="18.139" height="630.666"/>
	<rect x="382.694" fill="#008000" width="36.536" height="630.666"/>
	<rect x="308.694" fill="#008000" width="36.536" height="630.666"/>
	<rect x="234.694" fill="#008000" width="36.536" height="630.666"/>
	<rect x="160.694" fill="#008000" width="36.536" height="630.666"/>
	<rect x="86.694" fill="#008000" width="36.536" height="630.666"/>
	<rect x="17.694" fill="#008000" width="36.536" height="630.666"/>
</g>
<g id="Layer_2">
</g>
<g id="Layer_3">
	<g>
		<g>
			<path fill="#FFFFFF" d="M20.525,612.338h-2.367V18.164h949.784v594.173L20.525,612.338z M22.893,22.899v584.703l940.313-0.001
				V22.899H22.893z"/>
		</g>
		<g>
			<polygon fill="#FFFFFF" points="150.888,475.099 21.36,475.099 21.36,470.363 146.155,470.363 146.297,159.785 21.003,159.785 
				21.003,155.05 151.035,155.05 			"/>
		</g>
		<g>
			<polygon fill="#FFFFFF" points="63.528,388.757 20.585,388.757 20.585,384.021 58.792,384.021 58.792,246.024 21.102,246.024 
				21.102,241.289 63.528,241.289 			"/>
		</g>
		<g>
			<rect x="490.808" y="20.469" fill="#FFFFFF" width="4.735" height="589.472"/>
		</g>
		<g>
			<polygon fill="#FFFFFF" points="964.671,475.543 835.215,475.543 835.215,155.052 964.671,155.052 964.671,159.788 
				839.951,159.788 839.951,470.809 964.671,470.809 			"/>
		</g>
		<g>
			<polygon fill="#FFFFFF" points="964.942,388.758 921.484,388.758 921.484,241.292 964.942,241.292 964.942,246.027 
				926.219,246.027 926.219,384.022 964.942,384.022 			"/>
		</g>
		<g>
			<path fill="#FFFFFF" d="M493.174,388.162c-40.254,0-73.003-32.749-73.003-73.003s32.749-73.003,73.003-73.003
				s73.003,32.749,73.003,73.003S533.428,388.162,493.174,388.162z M493.174,246.892c-37.643,0-68.268,30.625-68.268,68.268
				s30.625,68.268,68.268,68.268s68.268-30.625,68.268-68.268S530.817,246.892,493.174,246.892z"/>
		</g>
		<g>
			<path fill="#FFFFFF" d="M840.039,378.76l-3.706-2.537c-19.918-13.639-31.81-36.171-31.81-60.274s11.892-46.636,31.81-60.274
				l3.706-2.537V378.76z M835.303,262.305c-16.39,12.913-26.045,32.641-26.045,53.644c0,21.004,9.655,40.731,26.045,53.644V262.305z
				"/>
		</g>
		<g>
			<path fill="#FFFFFF" d="M146.396,380.887V251.221l3.705,2.537c20.586,14.096,32.876,37.384,32.876,62.296
				c0,24.911-12.29,48.2-32.876,62.296L146.396,380.887z M151.131,260.382v111.343c17.055-13.373,27.11-33.858,27.11-55.671
				S168.186,273.756,151.131,260.382z"/>
		</g>
		<g>
			<circle fill="#FFFFFF" cx="106.075" cy="315.153" r="4.929"/>
		</g>
		<g>
			<circle fill="#FFFFFF" cx="493.192" cy="315.438" r="4.929"/>
		</g>
		<g>
			<circle fill="#FFFFFF" cx="879.154" cy="315.727" r="4.929"/>
		</g>
	</g>
</g>
<g id="Layer_6">
</g>
</svg>
